<svg xmlns="http://www.w3.org/2000/svg" viewBox="0 0 2400 800" width="2400" height="800">
  <defs><style>@import url('https://fonts.googleapis.com/css2?family=Cormorant+Garamond:ital,wght@0,500;1,500&amp;display=swap');</style></defs>

  <rect width="2400" height="800" fill="#EFE6D2"/>
  <g stroke="#D8C9A8" stroke-width="0.8" opacity="0.28"><line x1="80" y1="0" x2="80" y2="800"/><line x1="160" y1="0" x2="160" y2="800"/><line x1="240" y1="0" x2="240" y2="800"/><line x1="320" y1="0" x2="320" y2="800"/><line x1="400" y1="0" x2="400" y2="800"/><line x1="480" y1="0" x2="480" y2="800"/><line x1="560" y1="0" x2="560" y2="800"/><line x1="640" y1="0" x2="640" y2="800"/><line x1="720" y1="0" x2="720" y2="800"/><line x1="800" y1="0" x2="800" y2="800"/><line x1="880" y1="0" x2="880" y2="800"/><line x1="960" y1="0" x2="960" y2="800"/><line x1="1040" y1="0" x2="1040" y2="800"/><line x1="1120" y1="0" x2="1120" y2="800"/><line x1="1200" y1="0" x2="1200" y2="800"/><line x1="1280" y1="0" x2="1280" y2="800"/><line x1="1360" y1="0" x2="1360" y2="800"/><line x1="1440" y1="0" x2="1440" y2="800"/><line x1="1520" y1="0" x2="1520" y2="800"/><line x1="1600" y1="0" x2="1600" y2="800"/><line x1="1680" y1="0" x2="1680" y2="800"/><line x1="1760" y1="0" x2="1760" y2="800"/><line x1="1840" y1="0" x2="1840" y2="800"/><line x1="1920" y1="0" x2="1920" y2="800"/><line x1="2000" y1="0" x2="2000" y2="800"/><line x1="2080" y1="0" x2="2080" y2="800"/><line x1="2160" y1="0" x2="2160" y2="800"/><line x1="2240" y1="0" x2="2240" y2="800"/><line x1="2320" y1="0" x2="2320" y2="800"/><line x1="0" y1="80" x2="2400" y2="80"/><line x1="0" y1="160" x2="2400" y2="160"/><line x1="0" y1="240" x2="2400" y2="240"/><line x1="0" y1="320" x2="2400" y2="320"/><line x1="0" y1="400" x2="2400" y2="400"/><line x1="0" y1="480" x2="2400" y2="480"/><line x1="0" y1="560" x2="2400" y2="560"/><line x1="0" y1="640" x2="2400" y2="640"/><line x1="0" y1="720" x2="2400" y2="720"/></g>
  <path d="M 2400 0 L 2400 220 Q 2220 200 2120 130 Q 2060 60 2060 0 Z" fill="#9CAA8E" opacity="0.32"/>
  <path d="M 2060 0 Q 2060 60 2120 130 Q 2220 200 2400 220" fill="none" stroke="#7E8E72" stroke-width="1" opacity="0.45"/>
  <path d="M 0 800 L 0 640 Q 80 620 150 670 Q 220 710 240 800 Z" fill="#9CAA8E" opacity="0.18"/>
  <line x1="20" y1="600" x2="2360" y2="600" stroke="#1B2A3C" stroke-width="1.4" stroke-dasharray="2,8" opacity="0.32"/>
  <path d="M 60 600 Q 400 575 720 590 Q 1000 605 1300 590 Q 1600 575 1900 595 Q 2150 610 2310 580" fill="none" stroke="#C9A24C" stroke-width="3.5" stroke-dasharray="10,12" stroke-linecap="round"/>
  <g transform="translate(2240, 110)">
    <circle cx="0" cy="0" r="50" fill="none" stroke="#1B2A3C" stroke-width="1" opacity="0.55"/>
    <circle cx="0" cy="0" r="38" fill="none" stroke="#1B2A3C" stroke-width="0.6" opacity="0.4"/>
    <path d="M 0 -40 L 5 0 L 0 40 L -5 0 Z" fill="#C9A24C" opacity="0.95"/>
    <path d="M -34 0 L 0 -5 L 34 0 L 0 5 Z" fill="#1B2A3C" opacity="0.7"/>
    <circle cx="0" cy="0" r="2.4" fill="#1B2A3C"/>
    <text x="0" y="-58" text-anchor="middle" font-family="'Cormorant Garamond', Georgia, serif" font-style="italic" font-size="22" fill="#1B2A3C" opacity="0.85">N</text>
  </g>
  <g transform="translate(70, 720) rotate(-12)" stroke="#7E8E72" stroke-width="1.6" stroke-linecap="round" fill="none">
    <line x1="0" y1="0" x2="0" y2="-50"/>
    <line x1="0" y1="-15" x2="-15" y2="-30"/>
    <line x1="0" y1="-15" x2="15" y2="-30"/>
    <line x1="0" y1="-30" x2="-22" y2="-42"/>
    <line x1="0" y1="-30" x2="22" y2="-42"/>
    <line x1="0" y1="-42" x2="-12" y2="-50"/>
    <line x1="0" y1="-42" x2="12" y2="-50"/>
  </g>
  <text x="1200" y="745" text-anchor="middle" font-family="'Cormorant Garamond', Georgia, serif" font-size="38" font-weight="500" letter-spacing="3" fill="#0E1A2A">A Walking Guide to Kirulapone</text>


  <g transform="translate(280, 175)" stroke="#C9A24C" stroke-width="2.5" stroke-linecap="round" fill="none">
    <circle cx="0" cy="0" r="22" stroke-width="2"/>
    <line x1="0" y1="-32" x2="0" y2="-40"/><line x1="0" y1="32" x2="0" y2="40"/>
    <line x1="-32" y1="0" x2="-40" y2="0"/><line x1="32" y1="0" x2="40" y2="0"/>
    <line x1="-22" y1="-22" x2="-30" y2="-30"/><line x1="22" y1="-22" x2="30" y2="-30"/>
    <line x1="-22" y1="22" x2="-30" y2="30"/><line x1="22" y1="22" x2="30" y2="30"/>
  </g>
  <g transform="translate(880,200) scale(1.0)">
    <ellipse cx="0" cy="0" rx="34" ry="11" fill="#1B2A3C"/>
    <ellipse cx="-2" cy="3" rx="22" ry="7" fill="#C9A24C"/>
    <path d="M 28 0 L 42 -4 L 38 0 L 42 4 Z" fill="#1B2A3C"/>
    <path d="M -33 0 L -42 -2 L -42 2 Z" fill="#0E1A2A"/>
    <circle cx="-26" cy="-2" r="1.4" fill="#F4ECDD"/>
    <path d="M -8 -8 Q 0 -14 12 -10" fill="none" stroke="#0E1A2A" stroke-width="0.8" opacity="0.6"/>
  </g>
  <g transform="translate(440,600) scale(1.2)">
    <path d="M -16 4 L -16 -28 Q -16 -40 0 -40 Q 16 -40 16 -28 L 16 4 Z" fill="none" stroke="#1B2A3C" stroke-width="2.4"/>
    <line x1="0" y1="-40" x2="0" y2="4" stroke="#1B2A3C" stroke-width="1.4" opacity="0.7"/>
    <circle cx="-5" cy="-12" r="1.4" fill="#1B2A3C"/>
    <circle cx="5" cy="-12" r="1.4" fill="#1B2A3C"/>
  </g>
  <g transform="translate(620,600) scale(1.1)" stroke="#7E8E72" stroke-width="2.2" stroke-linecap="round" fill="none">
    <line x1="0" y1="0" x2="0" y2="-55"/>
    <path d="M 0 -55 Q -22 -68 -36 -60"/>
    <path d="M 0 -55 Q 22 -68 36 -60"/>
    <path d="M 0 -55 Q -18 -78 -28 -82"/>
    <path d="M 0 -55 Q 18 -78 28 -82"/>
    <path d="M 0 -55 Q 0 -82 -2 -90"/>
  </g>
  <g transform="translate(900,600) scale(1.0)">
    <ellipse cx="-8" cy="-22" rx="9" ry="6" fill="#C25E3D"/>
    <ellipse cx="6" cy="-23" rx="9" ry="6" fill="#C25E3D" opacity="0.9"/>
    <ellipse cx="-2" cy="-28" rx="8" ry="5" fill="#C25E3D" opacity="0.85"/>
    <path d="M -28 -18 L 28 -18 L 22 16 L -22 16 Z" fill="none" stroke="#1B2A3C" stroke-width="2"/>
    <line x1="-26" y1="-8" x2="26" y2="-8" stroke="#1B2A3C" stroke-width="1" opacity="0.6"/>
    <line x1="-25" y1="2" x2="25" y2="2" stroke="#1B2A3C" stroke-width="1" opacity="0.6"/>
  </g>
  <g transform="translate(1230,600) scale(0.85)">
    <path d="M -28 0 L -28 -12 Q -28 -52 0 -55 Q 28 -52 28 -12 L 28 0 Z" fill="#1B2A3C"/>
    <rect x="-32" y="0" width="64" height="6" fill="#1B2A3C"/>
    <rect x="-3" y="-65" width="6" height="12" fill="#1B2A3C"/>
    <path d="M 0 -78 L -4 -65 L 4 -65 Z" fill="#1B2A3C"/>
  </g>
  <g transform="translate(1500,600) scale(1.0)">
    <ellipse cx="-8" cy="-22" rx="9" ry="6" fill="#7E8E72"/>
    <ellipse cx="6" cy="-23" rx="9" ry="6" fill="#7E8E72" opacity="0.9"/>
    <ellipse cx="-2" cy="-28" rx="8" ry="5" fill="#7E8E72" opacity="0.85"/>
    <path d="M -28 -18 L 28 -18 L 22 16 L -22 16 Z" fill="none" stroke="#1B2A3C" stroke-width="2"/>
    <line x1="-26" y1="-8" x2="26" y2="-8" stroke="#1B2A3C" stroke-width="1" opacity="0.6"/>
    <line x1="-25" y1="2" x2="25" y2="2" stroke="#1B2A3C" stroke-width="1" opacity="0.6"/>
  </g>
  <g transform="translate(1750,600) scale(1.0)" stroke="#7E8E72" stroke-width="2.2" stroke-linecap="round" fill="none">
    <line x1="0" y1="0" x2="0" y2="-55"/>
    <path d="M 0 -55 Q -22 -68 -36 -60"/>
    <path d="M 0 -55 Q 22 -68 36 -60"/>
    <path d="M 0 -55 Q -18 -78 -28 -82"/>
    <path d="M 0 -55 Q 18 -78 28 -82"/>
    <path d="M 0 -55 Q 0 -82 -2 -90"/>
  </g>
  <g transform="translate(1990,600) scale(1.0)">
    <path d="M -8 -28 Q -10 -34 -6 -38 Q -2 -42 -6 -48" fill="none" stroke="#1B2A3C" stroke-width="1.2" stroke-linecap="round" opacity="0.5"/>
    <path d="M 6 -28 Q 4 -34 8 -38 Q 12 -42 8 -48" fill="none" stroke="#1B2A3C" stroke-width="1.2" stroke-linecap="round" opacity="0.5"/>
    <path d="M -18 -22 L 18 -22 L 14 8 L -14 8 Z" fill="#C25E3D"/>
    <ellipse cx="0" cy="-22" rx="18" ry="3" fill="#0E1A2A"/>
    <path d="M 18 -16 Q 30 -14 30 -6 Q 30 2 18 0" fill="none" stroke="#C25E3D" stroke-width="3"/>
  </g>
  <g transform="translate(2240,600) scale(1.0)">
    <path d="M 0 -42 Q -22 -42 -22 -22 Q -22 -8 0 18 Q 22 -8 22 -22 Q 22 -42 0 -42 Z" fill="#C25E3D"/>
    <circle cx="0" cy="-22" r="6" fill="#F4ECDD"/>
  </g>

</svg>